<svg xmlns="http://www.w3.org/2000/svg" viewBox="0 0 29 29" width="132" height="132" shape-rendering="crispEdges" role="img" aria-label="QR-Code zum App Store"><path fill="#141821" d="M0 0h1v1h-1z M1 0h1v1h-1z M2 0h1v1h-1z M3 0h1v1h-1z M4 0h1v1h-1z M5 0h1v1h-1z M6 0h1v1h-1z M8 0h1v1h-1z M12 0h1v1h-1z M14 0h1v1h-1z M17 0h1v1h-1z M18 0h1v1h-1z M19 0h1v1h-1z M22 0h1v1h-1z M23 0h1v1h-1z M24 0h1v1h-1z M25 0h1v1h-1z M26 0h1v1h-1z M27 0h1v1h-1z M28 0h1v1h-1z M0 1h1v1h-1z M6 1h1v1h-1z M8 1h1v1h-1z M11 1h1v1h-1z M12 1h1v1h-1z M14 1h1v1h-1z M18 1h1v1h-1z M22 1h1v1h-1z M28 1h1v1h-1z M0 2h1v1h-1z M2 2h1v1h-1z M3 2h1v1h-1z M4 2h1v1h-1z M6 2h1v1h-1z M9 2h1v1h-1z M10 2h1v1h-1z M13 2h1v1h-1z M15 2h1v1h-1z M16 2h1v1h-1z M18 2h1v1h-1z M19 2h1v1h-1z M20 2h1v1h-1z M22 2h1v1h-1z M24 2h1v1h-1z M25 2h1v1h-1z M26 2h1v1h-1z M28 2h1v1h-1z M0 3h1v1h-1z M2 3h1v1h-1z M3 3h1v1h-1z M4 3h1v1h-1z M6 3h1v1h-1z M8 3h1v1h-1z M9 3h1v1h-1z M11 3h1v1h-1z M13 3h1v1h-1z M15 3h1v1h-1z M16 3h1v1h-1z M17 3h1v1h-1z M19 3h1v1h-1z M22 3h1v1h-1z M24 3h1v1h-1z M25 3h1v1h-1z M26 3h1v1h-1z M28 3h1v1h-1z M0 4h1v1h-1z M2 4h1v1h-1z M3 4h1v1h-1z M4 4h1v1h-1z M6 4h1v1h-1z M9 4h1v1h-1z M12 4h1v1h-1z M15 4h1v1h-1z M17 4h1v1h-1z M19 4h1v1h-1z M22 4h1v1h-1z M24 4h1v1h-1z M25 4h1v1h-1z M26 4h1v1h-1z M28 4h1v1h-1z M0 5h1v1h-1z M6 5h1v1h-1z M10 5h1v1h-1z M14 5h1v1h-1z M16 5h1v1h-1z M19 5h1v1h-1z M20 5h1v1h-1z M22 5h1v1h-1z M28 5h1v1h-1z M0 6h1v1h-1z M1 6h1v1h-1z M2 6h1v1h-1z M3 6h1v1h-1z M4 6h1v1h-1z M5 6h1v1h-1z M6 6h1v1h-1z M8 6h1v1h-1z M10 6h1v1h-1z M12 6h1v1h-1z M14 6h1v1h-1z M16 6h1v1h-1z M18 6h1v1h-1z M20 6h1v1h-1z M22 6h1v1h-1z M23 6h1v1h-1z M24 6h1v1h-1z M25 6h1v1h-1z M26 6h1v1h-1z M27 6h1v1h-1z M28 6h1v1h-1z M8 7h1v1h-1z M9 7h1v1h-1z M14 7h1v1h-1z M15 7h1v1h-1z M16 7h1v1h-1z M17 7h1v1h-1z M18 7h1v1h-1z M19 7h1v1h-1z M0 8h1v1h-1z M2 8h1v1h-1z M3 8h1v1h-1z M5 8h1v1h-1z M6 8h1v1h-1z M7 8h1v1h-1z M9 8h1v1h-1z M10 8h1v1h-1z M11 8h1v1h-1z M17 8h1v1h-1z M18 8h1v1h-1z M22 8h1v1h-1z M25 8h1v1h-1z M27 8h1v1h-1z M28 8h1v1h-1z M2 9h1v1h-1z M3 9h1v1h-1z M5 9h1v1h-1z M7 9h1v1h-1z M8 9h1v1h-1z M12 9h1v1h-1z M13 9h1v1h-1z M14 9h1v1h-1z M19 9h1v1h-1z M20 9h1v1h-1z M21 9h1v1h-1z M22 9h1v1h-1z M24 9h1v1h-1z M28 9h1v1h-1z M0 10h1v1h-1z M1 10h1v1h-1z M2 10h1v1h-1z M3 10h1v1h-1z M4 10h1v1h-1z M5 10h1v1h-1z M6 10h1v1h-1z M7 10h1v1h-1z M8 10h1v1h-1z M11 10h1v1h-1z M12 10h1v1h-1z M14 10h1v1h-1z M17 10h1v1h-1z M21 10h1v1h-1z M22 10h1v1h-1z M24 10h1v1h-1z M26 10h1v1h-1z M27 10h1v1h-1z M0 11h1v1h-1z M1 11h1v1h-1z M2 11h1v1h-1z M3 11h1v1h-1z M7 11h1v1h-1z M8 11h1v1h-1z M9 11h1v1h-1z M10 11h1v1h-1z M11 11h1v1h-1z M12 11h1v1h-1z M13 11h1v1h-1z M28 11h1v1h-1z M1 12h1v1h-1z M5 12h1v1h-1z M6 12h1v1h-1z M7 12h1v1h-1z M11 12h1v1h-1z M12 12h1v1h-1z M15 12h1v1h-1z M16 12h1v1h-1z M17 12h1v1h-1z M23 12h1v1h-1z M25 12h1v1h-1z M26 12h1v1h-1z M0 13h1v1h-1z M1 13h1v1h-1z M3 13h1v1h-1z M5 13h1v1h-1z M7 13h1v1h-1z M8 13h1v1h-1z M9 13h1v1h-1z M10 13h1v1h-1z M12 13h1v1h-1z M13 13h1v1h-1z M14 13h1v1h-1z M15 13h1v1h-1z M17 13h1v1h-1z M18 13h1v1h-1z M19 13h1v1h-1z M22 13h1v1h-1z M26 13h1v1h-1z M27 13h1v1h-1z M28 13h1v1h-1z M0 14h1v1h-1z M2 14h1v1h-1z M3 14h1v1h-1z M5 14h1v1h-1z M6 14h1v1h-1z M14 14h1v1h-1z M16 14h1v1h-1z M19 14h1v1h-1z M22 14h1v1h-1z M26 14h1v1h-1z M27 14h1v1h-1z M28 14h1v1h-1z M2 15h1v1h-1z M4 15h1v1h-1z M5 15h1v1h-1z M9 15h1v1h-1z M10 15h1v1h-1z M11 15h1v1h-1z M13 15h1v1h-1z M16 15h1v1h-1z M18 15h1v1h-1z M19 15h1v1h-1z M20 15h1v1h-1z M24 15h1v1h-1z M27 15h1v1h-1z M2 16h1v1h-1z M3 16h1v1h-1z M4 16h1v1h-1z M6 16h1v1h-1z M7 16h1v1h-1z M10 16h1v1h-1z M11 16h1v1h-1z M12 16h1v1h-1z M16 16h1v1h-1z M19 16h1v1h-1z M20 16h1v1h-1z M21 16h1v1h-1z M24 16h1v1h-1z M25 16h1v1h-1z M27 16h1v1h-1z M1 17h1v1h-1z M2 17h1v1h-1z M3 17h1v1h-1z M4 17h1v1h-1z M8 17h1v1h-1z M10 17h1v1h-1z M11 17h1v1h-1z M12 17h1v1h-1z M13 17h1v1h-1z M15 17h1v1h-1z M16 17h1v1h-1z M17 17h1v1h-1z M21 17h1v1h-1z M23 17h1v1h-1z M25 17h1v1h-1z M26 17h1v1h-1z M27 17h1v1h-1z M0 18h1v1h-1z M2 18h1v1h-1z M3 18h1v1h-1z M4 18h1v1h-1z M6 18h1v1h-1z M9 18h1v1h-1z M10 18h1v1h-1z M12 18h1v1h-1z M15 18h1v1h-1z M17 18h1v1h-1z M20 18h1v1h-1z M21 18h1v1h-1z M24 18h1v1h-1z M26 18h1v1h-1z M2 19h1v1h-1z M3 19h1v1h-1z M4 19h1v1h-1z M9 19h1v1h-1z M11 19h1v1h-1z M17 19h1v1h-1z M18 19h1v1h-1z M23 19h1v1h-1z M26 19h1v1h-1z M1 20h1v1h-1z M2 20h1v1h-1z M3 20h1v1h-1z M5 20h1v1h-1z M6 20h1v1h-1z M10 20h1v1h-1z M11 20h1v1h-1z M13 20h1v1h-1z M15 20h1v1h-1z M17 20h1v1h-1z M18 20h1v1h-1z M19 20h1v1h-1z M20 20h1v1h-1z M21 20h1v1h-1z M22 20h1v1h-1z M23 20h1v1h-1z M24 20h1v1h-1z M25 20h1v1h-1z M26 20h1v1h-1z M8 21h1v1h-1z M9 21h1v1h-1z M12 21h1v1h-1z M13 21h1v1h-1z M14 21h1v1h-1z M17 21h1v1h-1z M18 21h1v1h-1z M20 21h1v1h-1z M24 21h1v1h-1z M25 21h1v1h-1z M26 21h1v1h-1z M27 21h1v1h-1z M28 21h1v1h-1z M0 22h1v1h-1z M1 22h1v1h-1z M2 22h1v1h-1z M3 22h1v1h-1z M4 22h1v1h-1z M5 22h1v1h-1z M6 22h1v1h-1z M8 22h1v1h-1z M9 22h1v1h-1z M10 22h1v1h-1z M11 22h1v1h-1z M13 22h1v1h-1z M16 22h1v1h-1z M17 22h1v1h-1z M19 22h1v1h-1z M20 22h1v1h-1z M22 22h1v1h-1z M24 22h1v1h-1z M25 22h1v1h-1z M27 22h1v1h-1z M0 23h1v1h-1z M6 23h1v1h-1z M8 23h1v1h-1z M9 23h1v1h-1z M15 23h1v1h-1z M18 23h1v1h-1z M20 23h1v1h-1z M24 23h1v1h-1z M25 23h1v1h-1z M27 23h1v1h-1z M0 24h1v1h-1z M2 24h1v1h-1z M3 24h1v1h-1z M4 24h1v1h-1z M6 24h1v1h-1z M9 24h1v1h-1z M10 24h1v1h-1z M11 24h1v1h-1z M12 24h1v1h-1z M14 24h1v1h-1z M15 24h1v1h-1z M16 24h1v1h-1z M17 24h1v1h-1z M20 24h1v1h-1z M21 24h1v1h-1z M22 24h1v1h-1z M23 24h1v1h-1z M24 24h1v1h-1z M26 24h1v1h-1z M0 25h1v1h-1z M2 25h1v1h-1z M3 25h1v1h-1z M4 25h1v1h-1z M6 25h1v1h-1z M8 25h1v1h-1z M9 25h1v1h-1z M11 25h1v1h-1z M14 25h1v1h-1z M15 25h1v1h-1z M17 25h1v1h-1z M20 25h1v1h-1z M21 25h1v1h-1z M24 25h1v1h-1z M25 25h1v1h-1z M28 25h1v1h-1z M0 26h1v1h-1z M2 26h1v1h-1z M3 26h1v1h-1z M4 26h1v1h-1z M6 26h1v1h-1z M8 26h1v1h-1z M10 26h1v1h-1z M11 26h1v1h-1z M12 26h1v1h-1z M13 26h1v1h-1z M16 26h1v1h-1z M18 26h1v1h-1z M20 26h1v1h-1z M21 26h1v1h-1z M23 26h1v1h-1z M26 26h1v1h-1z M28 26h1v1h-1z M0 27h1v1h-1z M6 27h1v1h-1z M9 27h1v1h-1z M10 27h1v1h-1z M11 27h1v1h-1z M12 27h1v1h-1z M13 27h1v1h-1z M14 27h1v1h-1z M16 27h1v1h-1z M18 27h1v1h-1z M20 27h1v1h-1z M21 27h1v1h-1z M23 27h1v1h-1z M24 27h1v1h-1z M25 27h1v1h-1z M27 27h1v1h-1z M0 28h1v1h-1z M1 28h1v1h-1z M2 28h1v1h-1z M3 28h1v1h-1z M4 28h1v1h-1z M5 28h1v1h-1z M6 28h1v1h-1z M8 28h1v1h-1z M11 28h1v1h-1z M16 28h1v1h-1z M19 28h1v1h-1z M20 28h1v1h-1z M23 28h1v1h-1z M27 28h1v1h-1z"/></svg>